<svg xmlns="http://www.w3.org/2000/svg"  viewBox="0 0 64 64" width="128px" height="128px"><path d="M 12.865234 15 C 10.342703 15 8.2773436 17.066423 8.2773438 19.587891 L 8.2773438 46.25 C 8.2773438 47.757 8.5594998 49.611608 9.6816406 51.169922 C 10.803781 52.728236 12.806576 53.859375 15.726562 53.859375 L 43.347656 53.859375 C 46.678018 53.859375 49.844888 52.43175 51.273438 50.154297 C 55.036474 44.155295 55.670786 42.765283 59.417969 36.333984 A 1.0001 1.0001 0 0 0 59.470703 36.228516 C 60.148882 34.66366 60.288256 33.116921 59.529297 31.904297 C 58.770342 30.691672 57.295994 30.099913 55.441406 30.001953 A 1.0001 1.0001 0 0 0 55.388672 30 L 47.277344 30 L 47.277344 25.369141 C 47.277344 22.967571 45.30782 21 42.90625 21 L 31.369141 21 C 30.388755 21 29.49979 20.451045 29.060547 19.576172 L 28.029297 17.525391 C 27.251357 15.978453 25.663255 15 23.931641 15 L 12.865234 15 z M 12.865234 17 L 23.931641 17 C 24.912026 17 25.802126 17.548766 26.242188 18.423828 L 27.273438 20.474609 C 28.050194 22.021736 29.637526 23 31.369141 23 L 42.90625 23 C 44.22668 23 45.277344 24.04871 45.277344 25.369141 L 45.277344 30 L 32.253906 30 A 1.0001 1.0001 0 0 0 32.179688 30.001953 C 27.859952 30.318216 26.024627 32.760227 24.775391 34.736328 C 24.730101 34.799508 19.793175 41.68456 17.714844 45.226562 C 17.217869 46.073293 16.738405 46.464757 16.378906 46.625 C 16.019407 46.785243 15.750802 46.765776 15.449219 46.642578 C 14.846052 46.396178 14.277344 45.484434 14.277344 44.953125 L 14.277344 41 A 1.0001 1.0001 0 1 0 12.277344 41 L 12.277344 44.953125 C 12.277344 46.467816 13.217026 47.891041 14.693359 48.494141 C 15.431526 48.79569 16.345171 48.829243 17.193359 48.451172 C 18.041548 48.073102 18.795428 47.335551 19.439453 46.238281 C 21.395596 42.904518 26.433594 35.851563 26.433594 35.851562 A 1.0001 1.0001 0 0 0 26.464844 35.804688 C 27.682313 33.878836 28.641853 32.272297 32.316406 32 L 45.277344 32 L 45.277344 37.001953 A 1.0001 1.0001 0 1 0 47.277344 37.001953 L 47.277344 32 L 55.345703 32 C 56.833351 32.0808 57.546515 32.505539 57.833984 32.964844 C 58.119504 33.421035 58.160249 34.197477 57.644531 35.404297 C 53.939077 41.767257 53.302318 43.155881 49.580078 49.089844 C 48.716628 50.466391 46.055295 51.859375 43.347656 51.859375 L 15.726562 51.859375 C 13.286551 51.859375 12.067047 51.060639 11.304688 50.001953 C 10.542328 48.943267 10.277344 47.493 10.277344 46.25 L 10.277344 19.587891 C 10.277344 18.147358 11.423766 17 12.865234 17 z"/></svg>