<svg xmlns="http://www.w3.org/2000/svg"  viewBox="0 0 64 64" width="64px" height="64px"><path d="M 52.970703 11 A 1.0001 1.0001 0 0 0 52.859375 11.009766 L 31.859375 14.009766 A 1.0001 1.0001 0 0 0 31 15 L 31 32 L 29 32 L 29 16 A 1.0001 1.0001 0 0 0 27.894531 15.005859 L 8.8945312 17.005859 A 1.0001 1.0001 0 0 0 8 18 L 8 50 A 1.0001 1.0001 0 0 0 8.8671875 50.992188 L 23.867188 52.992188 A 1.0010375 1.0010375 0 1 0 24.132812 51.007812 L 10 49.125 L 10 18.900391 L 27 17.111328 L 27 32 L 14 32 A 1.0001 1.0001 0 0 0 13 33 L 13 37 A 1.0001 1.0001 0 0 0 14 38 L 27 38 L 27 53 A 1.0001 1.0001 0 0 0 27.880859 53.992188 L 52.880859 56.992188 A 1.0001 1.0001 0 0 0 54 56 L 54 37 A 1.0001 1.0001 0 0 0 53 36 L 33 36 L 33 34 L 53 34 A 1.0001 1.0001 0 0 0 54 33 L 54 12 A 1.0001 1.0001 0 0 0 52.970703 11 z M 52 13.152344 L 52 32 L 33 32 L 33 15.867188 L 52 13.152344 z M 15 34 L 27 34 L 27 36 L 15 36 L 15 34 z M 29 34 L 31 34 L 31 36 L 29 36 L 29 34 z M 29 38 L 31 38 L 31 48 A 1.0001 1.0001 0 1 0 33 48 L 33 38 L 52 38 L 52 54.873047 L 29 52.113281 L 29 38 z"/></svg>